<svg xmlns="http://www.w3.org/2000/svg" viewBox="0 0 600 800" width="100%" height="100%">
  <rect width="600" height="800" fill="#FBF3F6"/>
  <rect x="0" y="0" width="600" height="180" fill="#C13469"/>
  <path d="M 0 180 Q 300 240 600 180 L 600 0 L 0 0 Z" fill="#C13469"/>
  <!-- Pink Ribbon Icon -->
  <path d="M 300 60 C 270 20, 240 60, 280 110 L 300 135 L 320 110 C 360 60, 330 20, 300 60 Z" fill="#fff" opacity="0.9"/>
  <text x="300" y="165" font-family="'IBM Plex Sans Arabic', Georgia, serif" font-size="22" font-weight="bold" fill="#fff" text-anchor="middle">الكشف المبكر ينقذ الحياة</text>
  
  <!-- Stand Visual Blueprint -->
  <rect x="60" y="240" width="480" height="380" rx="12" fill="#fff" stroke="#C13469" stroke-width="4"/>
  <rect x="90" y="270" width="420" height="60" rx="6" fill="#C13469"/>
  <text x="300" y="308" font-family="'Helvetica Neue', sans-serif" font-size="20" font-weight="900" fill="#fff" text-anchor="middle" letter-spacing="2">LIFEY × KHBCP</text>
  
  <!-- Booth Counters & Displays -->
  <rect x="100" y="360" width="180" height="150" rx="8" fill="#F0E6D2" stroke="#241B12" stroke-width="2"/>
  <text x="190" y="420" font-family="sans-serif" font-size="14" font-weight="700" fill="#241B12" text-anchor="middle">Screening Info Counter</text>
  <text x="190" y="445" font-family="sans-serif" font-size="12" fill="#C13469" text-anchor="middle">10% Product Donation</text>

  <rect x="320" y="360" width="180" height="150" rx="8" fill="#F0E6D2" stroke="#241B12" stroke-width="2"/>
  <text x="410" y="420" font-family="sans-serif" font-size="14" font-weight="700" fill="#241B12" text-anchor="middle">Product Sampling Hub</text>
  <text x="410" y="445" font-family="sans-serif" font-size="12" fill="#156160" text-anchor="middle">Staffed Team Station</text>

  <rect x="90" y="530" width="420" height="60" rx="6" fill="#241B12"/>
  <text x="300" y="566" font-family="sans-serif" font-size="14" font-weight="600" fill="#F0E6D2" text-anchor="middle">King Hussein Business Park — Live Activation</text>

  <rect x="60" y="650" width="480" height="100" rx="8" fill="#F0E6D2" stroke="#C13469" stroke-width="2"/>
  <text x="300" y="690" font-family="sans-serif" font-size="16" font-weight="700" fill="#C13469" text-anchor="middle">CAUSE MARKETING IN ACTION</text>
  <text x="300" y="720" font-family="sans-serif" font-size="13" fill="#5C4B3A" text-anchor="middle">Direct screening subsidy for women in need</text>
</svg>